<svg id="Layer_1" data-name="Layer 1" xmlns="http://www.w3.org/2000/svg" viewBox="0 0 40 40"><defs><style>.cls-1{fill:#fff;}</style></defs><title>filter-icon</title><path class="cls-1" d="M23.64,40a1.69,1.69,0,0,1-.81-.21l-7.27-4a2,2,0,0,1-1-1.79V21.65L.43,3.29A2.16,2.16,0,0,1,.17,1.16,1.81,1.81,0,0,1,1.82,0H38.18a1.81,1.81,0,0,1,1.65,1.16,2.16,2.16,0,0,1-.26,2.13L25.45,21.65V38a2.05,2.05,0,0,1-.86,1.7A1.69,1.69,0,0,1,23.64,40Zm-5.45-7.24,3.64,2V20.92a2.13,2.13,0,0,1,.43-1.29L34.26,4H5.74l12,15.63a2.13,2.13,0,0,1,.43,1.29Z"/></svg>